# xmcd
#
# Track frame offsets:
#	150
#	12425
#	27235
#	38883
#	52523
#	64228
#	81063
#	97093
#	110068
#	121533
#	137623
#	151270
#	165125
#	181650
#	193345
#	208215
#	228618
#	239885
#	258935
#	272283
#	284490
#	299443
#	310075
#	325200
#	341790
#
# Disc length: 4741 seconds
#
# Revision: 0
# Processed by: cddbd v1.5.2PL0 Copyright (c) Steve Scherf et al.
# Submitted via: audiograbber 1.83.01
#
DISCID=66128319
DTITLE=Perry Como - Magic Moments CD1
DYEAR=1900
DGENRE=
TTITLE0=Magic Moments
TTITLE1=And I Love You So
TTITLE2=Round And Round
TTITLE3=Yesterday
TTITLE4=Moon Talk
TTITLE5=El Condor Pasa
TTITLE6=Something
TTITLE7=It All Seems To Fall Into Line
TTITLE8=Just Born
TTITLE9=Feelings
TTITLE10=Mi Casa, Su Casa
TTITLE11=Snowbird
TTITLE12=For The Good Times
TTITLE13=Kewpie Doll
TTITLE14=It`s Impossible
TTITLE15=Try To Remember
TTITLE16=Catch A Falling Star
TTITLE17=Wind Beneath My Wings
TTITLE18=I Believe In Music
TTITLE19=Sting
TTITLE20=Unchained Melody
TTITLE21=Dream on Little Dreamer
TTITLE22=Raindrops Keep Falling On My Head
TTITLE23=You Light Up My Life
TTITLE24=When I Need You
EXTD=
EXTT0=
EXTT1=
EXTT2=
EXTT3=
EXTT4=
EXTT5=
EXTT6=
EXTT7=
EXTT8=
EXTT9=
EXTT10=
EXTT11=
EXTT12=
EXTT13=
EXTT14=
EXTT15=
EXTT16=
EXTT17=
EXTT18=
EXTT19=
EXTT20=
EXTT21=
EXTT22=
EXTT23=
EXTT24=
PLAYORDER=
